<svg xmlns="http://www.w3.org/2000/svg" width="1200" height="520" viewBox="0 0 1200 520">
  <defs>
    <linearGradient id="bg" x1="0" y1="0" x2="1" y2="1">
      <stop offset="0" stop-color="#0f1115"/>
      <stop offset="1" stop-color="#0b0d10"/>
    </linearGradient>
    <linearGradient id="hero" x1="0" y1="0" x2="1" y2="1">
      <stop offset="0" stop-color="#2a2f3a"/>
      <stop offset="1" stop-color="#111318"/>
    </linearGradient>
    <linearGradient id="accent" x1="0" y1="0" x2="1" y2="0">
      <stop offset="0" stop-color="#ff5a1f"/>
      <stop offset="1" stop-color="#d4af37"/>
    </linearGradient>
    <filter id="shadow" x="-20%" y="-20%" width="140%" height="140%">
      <feDropShadow dx="0" dy="14" stdDeviation="18" flood-color="#000000" flood-opacity="0.55"/>
    </filter>
  </defs>

  <rect x="16" y="16" width="1168" height="488" rx="28" fill="url(#bg)" stroke="#2a2f3a" stroke-width="1.5"/>

  <g font-family="ui-sans-serif, system-ui, -apple-system, Segoe UI, Roboto, Helvetica, Arial" text-rendering="geometricPrecision">
    <text x="600" y="92" font-size="18" fill="#8a93a2" text-anchor="middle" letter-spacing="2">LATEST ARTICLE</text>
    <text x="600" y="145" font-size="48" fill="#f4f7fb" text-anchor="middle" font-weight="800">Operational Intelligence in Manufacturing</text>
    <rect x="470" y="168" width="260" height="4" rx="2" fill="url(#accent)" opacity="0.9"/>
  </g>

  <g filter="url(#shadow)">
    <rect x="68" y="200" width="1064" height="260" rx="22" fill="#111318" stroke="#2a2f3a" stroke-width="1.25"/>
  </g>

  <rect x="92" y="224" width="520" height="212" rx="16" fill="url(#hero)" stroke="#2a2f3a" stroke-width="1"/>

  <g opacity="0.95">
    <circle cx="190" cy="330" r="44" fill="#0f1115" stroke="#2a2f3a" stroke-width="2"/>
    <path d="M190 294 L208 330 L190 366 L172 330 Z" fill="#ff5a1f" opacity="0.9"/>
    <path d="M250 295 C340 265, 425 290, 500 335 C540 360, 585 372, 606 368" fill="none" stroke="#d4af37" stroke-width="2.4" opacity="0.9"/>
    <path d="M250 360 C335 388, 430 385, 510 350 C555 330, 585 322, 606 318" fill="none" stroke="#8a93a2" stroke-width="1.6" opacity="0.65"/>
  </g>

  <g font-family="ui-sans-serif, system-ui, -apple-system, Segoe UI, Roboto, Helvetica, Arial" text-rendering="geometricPrecision">
    <rect x="640" y="230" width="150" height="26" rx="13" fill="#0f1115" stroke="#2a2f3a" stroke-width="1"/>
    <text x="715" y="248" font-size="12" fill="#c9ced6" text-anchor="middle" letter-spacing="1.5">OPEX</text>

    <text x="640" y="300" font-size="26" fill="#f4f7fb" font-weight="800">From friction to governed execution</text>
    <text x="640" y="330" font-size="14" fill="#8a93a2">A practical framework to convert operational pain points into scalable systems.</text>
    <text x="640" y="352" font-size="14" fill="#8a93a2">Visibility, standards, adoption, and measurable outcomes.</text>

    <rect x="640" y="390" width="180" height="34" rx="17" fill="#0f1115" stroke="#2a2f3a" stroke-width="1"/>
    <text x="730" y="412" font-size="13" fill="#c9ced6" text-anchor="middle">Read more  →</text>
  </g>
</svg>

